<svg xmlns="http://www.w3.org/2000/svg" xmlns:xlink="http://www.w3.org/1999/xlink" version="1.1" width="1000" height="1000" viewBox="0 0 1000 1000" xml:space="preserve">
<desc>Created with Fabric.js 3.5.0</desc>
<defs>
</defs>
<rect x="0" y="0" width="100%" height="100%" fill="#ffffff"/>
<g transform="matrix(2.3828 0 0 2.3828 499.9992 499.9992)" id="38709">
<g style="" vector-effect="non-scaling-stroke">
		<g transform="matrix(1 0 0 1 0 0)" id="production-manager">
<path style="stroke: none; stroke-width: 1; stroke-dasharray: none; stroke-linecap: butt; stroke-dashoffset: 0; stroke-linejoin: miter; stroke-miterlimit: 4; is-custom-font: none; font-file-url: none; fill: rgb(111,28,56); fill-rule: nonzero; opacity: 1;" transform=" translate(-64, -64)" d="M 1.54 29.31 h 0.92 a 17.59 17.59 0 0 0 3.51 8.46 l -0.66 0.65 a 1.545 1.545 0 0 0 0 2.18 l 1.09 1.09 a 1.545 1.545 0 0 0 1.09 0.45 a 1.528 1.528 0 0 0 1.09 -0.45 l 0.65 -0.66 a 17.59 17.59 0 0 0 8.46 3.51 v 0.92 A 1.54 1.54 0 0 0 19.23 47 h 1.54 a 1.54 1.54 0 0 0 1.54 -1.54 v -0.92 c 0.275 -0.036 0.545 -0.086 0.816 -0.134 A 7.994 7.994 0 0 1 23 43 v -4 a 7.91 7.91 0 0 1 0.455 -2.628 A 9.996 9.996 0 1 1 28.9 22.463 a 38.044 38.044 0 0 1 5.55 -9.304 l -0.85 -0.849 a 1.545 1.545 0 0 0 -1.09 -0.45 a 1.528 1.528 0 0 0 -1.09 0.45 l -0.65 0.66 a 17.59 17.59 0 0 0 -8.46 -3.51 v -0.92 A 1.54 1.54 0 0 0 20.77 7 h -1.54 a 1.54 1.54 0 0 0 -1.54 1.54 v 0.92 a 17.59 17.59 0 0 0 -8.46 3.51 l -0.65 -0.66 a 1.528 1.528 0 0 0 -1.09 -0.45 a 1.545 1.545 0 0 0 -1.09 0.45 L 5.31 13.4 a 1.545 1.545 0 0 0 0 2.18 l 0.66 0.65 a 17.59 17.59 0 0 0 -3.51 8.46 h -0.92 A 1.54 1.54 0 0 0 0 26.23 v 1.54 a 1.54 1.54 0 0 0 1.54 1.54 z m 30.033 36.827 a 34.646 34.646 0 0 1 -2.164 -7.837 a 29.961 29.961 0 0 0 -13.719 5.84 l -1.11 -1.11 a 2.632 2.632 0 0 0 -3.7 0 l -1.85 1.85 a 2.62 2.62 0 0 0 0 3.7 l 1.11 1.11 a 29.966 29.966 0 0 0 -5.95 14.39 H 2.62 A 2.614 2.614 0 0 0 0 86.69 v 2.62 a 2.614 2.614 0 0 0 2.62 2.61 h 1.57 a 29.966 29.966 0 0 0 2.86 9.43 a 27.277 27.277 0 0 1 4.973 -14.24 a 22.03 22.03 0 0 1 19.55 -20.973 z M 125.38 84.08 h -1.57 a 29.966 29.966 0 0 0 -5.95 -14.39 l 1.11 -1.11 a 2.62 2.62 0 0 0 0 -3.7 l -1.85 -1.85 a 2.632 2.632 0 0 0 -3.7 0 l -1.11 1.11 a 29.961 29.961 0 0 0 -13.719 -5.84 a 34.646 34.646 0 0 1 -2.164 7.837 a 22.03 22.03 0 0 1 19.55 20.973 a 27.277 27.277 0 0 1 4.973 14.24 a 29.966 29.966 0 0 0 2.86 -9.43 h 1.57 a 2.614 2.614 0 0 0 2.62 -2.61 v -2.62 a 2.614 2.614 0 0 0 -2.62 -2.61 z m 1.08 -59.39 h -0.92 a 17.59 17.59 0 0 0 -3.51 -8.46 l 0.66 -0.65 a 1.545 1.545 0 0 0 0 -2.18 l -1.09 -1.09 a 1.545 1.545 0 0 0 -1.09 -0.45 a 1.528 1.528 0 0 0 -1.09 0.45 l -0.65 0.66 a 17.59 17.59 0 0 0 -8.46 -3.51 v -0.92 A 1.54 1.54 0 0 0 108.77 7 h -1.54 a 1.54 1.54 0 0 0 -1.54 1.54 v 0.92 a 17.59 17.59 0 0 0 -8.46 3.51 l -0.65 -0.66 a 1.528 1.528 0 0 0 -1.09 -0.45 a 1.545 1.545 0 0 0 -1.09 0.45 l -0.85 0.85 a 38.044 38.044 0 0 1 5.55 9.303 a 10.015 10.015 0 1 1 5.445 13.909 A 7.91 7.91 0 0 1 105 39 v 4 a 7.994 7.994 0 0 1 -0.126 1.406 c 0.271 0.048 0.541 0.098 0.816 0.134 v 0.92 a 1.54 1.54 0 0 0 1.54 1.54 h 1.54 a 1.54 1.54 0 0 0 1.54 -1.54 v -0.92 a 17.59 17.59 0 0 0 8.46 -3.51 l 0.65 0.66 a 1.528 1.528 0 0 0 1.09 0.45 a 1.545 1.545 0 0 0 1.09 -0.45 l 1.09 -1.09 a 1.545 1.545 0 0 0 0 -2.18 l -0.66 -0.65 a 17.59 17.59 0 0 0 3.51 -8.46 h 0.92 a 1.54 1.54 0 0 0 1.54 -1.54 v -1.54 a 1.54 1.54 0 0 0 -1.54 -1.54 z M 33 51 v 2 a 31 31 0 0 0 62 0 v -2 z m 64.944 -15.876 a 34.05 34.05 0 0 0 -27.99 -31.586 A 3.987 3.987 0 0 0 66 0 h -4 a 3.987 3.987 0 0 0 -3.953 3.538 a 34.05 34.05 0 0 0 -27.99 31.586 A 3.993 3.993 0 0 0 27 39 v 4 a 4 4 0 0 0 4 4 h 66 a 4 4 0 0 0 4 -4 v -4 a 3.993 3.993 0 0 0 -3.056 -3.876 z M 58 7.62 V 20 a 4 4 0 0 0 4 4 h 4 a 4 4 0 0 0 4 -4 V 7.62 A 30.045 30.045 0 0 1 93.926 35 H 34.074 A 30.045 30.045 0 0 1 58 7.62 z M 97 43 H 31 v -4 h 66 z m -68 61 v 22 a 2 2 0 0 0 2 2 h 66 a 2 2 0 0 0 2 -2 v -22 z" stroke-linecap="round"/>
</g>
		<g transform="matrix(1 0 0 1 -0.0006 38.25)" id="production-manager">
<path style="stroke: none; stroke-width: 1; stroke-dasharray: none; stroke-linecap: butt; stroke-dashoffset: 0; stroke-linejoin: miter; stroke-miterlimit: 4; is-custom-font: none; font-file-url: none; fill: rgb(111,28,56); fill-rule: nonzero; opacity: 1;" transform=" translate(-63.9993, -102.25)" d="M 29 100 h 12 V 84 h 6.78 a 35.127 35.127 0 0 1 -6.028 -4 h -0.802 A 3.987 3.987 0 0 0 37 76.5 h -4 a 3.995 3.995 0 0 0 -3.991 3.915 A 22.799 22.799 0 0 0 11 102.952 V 126 a 2 2 0 0 0 4 0 v -23.048 a 18.818 18.818 0 0 1 14 -18.414 z m 87.941 1.369 l -0.013 0.025 a 22.733 22.733 0 0 0 -17.937 -20.98 A 3.995 3.995 0 0 0 95 76.5 h -4 a 3.987 3.987 0 0 0 -3.95 3.5 h -0.802 a 35.127 35.127 0 0 1 -6.028 4 H 87 v 16 h 12 V 84.538 a 18.818 18.818 0 0 1 14 18.414 V 126 a 2 2 0 0 0 4 0 v -23.048 c 0 -0.533 -0.024 -1.06 -0.059 -1.583 z" stroke-linecap="round"/>
</g>
</g>
</g>
</svg>