<svg xmlns="http://www.w3.org/2000/svg" xmlns:xlink="http://www.w3.org/1999/xlink" version="1.1" width="1000" height="1000" viewBox="0 0 1000 1000" xml:space="preserve">
<desc>Created with Fabric.js 3.5.0</desc>
<defs>
</defs>
<rect x="0" y="0" width="100%" height="100%" fill="#ffffff"/>
<g transform="matrix(9.5313 0 0 9.5313 500.0008 500.0008)" id="669315">
<g style="" vector-effect="non-scaling-stroke">
		<g transform="matrix(1 0 0 1 2.9999 0.0123)" id="logout">
<path style="stroke: none; stroke-width: 1; stroke-dasharray: none; stroke-linecap: butt; stroke-dashoffset: 0; stroke-linejoin: miter; stroke-miterlimit: 4; is-custom-font: none; font-file-url: none; fill: rgb(111,28,56); fill-rule: nonzero; opacity: 1;" transform=" translate(-18.9999, -16.0123)" d="M 26.707 15.293 l -5 -5 a 1 1 0 0 0 -1.414 1.414 L 23.586 15 H 12 a 1 1 0 0 0 0 2 H 23.586 l -3.293 3.293 a 1 1 0 1 0 1.414 1.414 l 5 -5 A 1 1 0 0 0 26.707 15.293 Z" stroke-linecap="round"/>
</g>
		<g transform="matrix(1 0 0 1 -8 0)" id="logout">
<path style="stroke: none; stroke-width: 1; stroke-dasharray: none; stroke-linecap: butt; stroke-dashoffset: 0; stroke-linejoin: miter; stroke-miterlimit: 4; is-custom-font: none; font-file-url: none; fill: rgb(111,28,56); fill-rule: nonzero; opacity: 1;" transform=" translate(-8, -16)" d="M 10 25 H 7 V 7 h 3 a 1 1 0 0 0 0 -2 H 6 A 1 1 0 0 0 5 6 V 26 a 1 1 0 0 0 1 1 h 4 a 1 1 0 0 0 0 -2 Z" stroke-linecap="round"/>
</g>
</g>
</g>
</svg>