<svg xmlns="http://www.w3.org/2000/svg" xmlns:xlink="http://www.w3.org/1999/xlink" version="1.1" width="1000" height="1000" viewBox="0 0 1000 1000" xml:space="preserve">
<desc>Created with Fabric.js 3.5.0</desc>
<defs>
</defs>
<rect x="0" y="0" width="100%" height="100%" fill="rgba(102,51,102,0)"/>
<g transform="matrix(19.3996 0 0 15.25 499.9999 500.0001)" id="550854">
<path style="stroke: none; stroke-width: 1; stroke-dasharray: none; stroke-linecap: butt; stroke-dashoffset: 0; stroke-linejoin: miter; stroke-miterlimit: 4; is-custom-font: none; font-file-url: none; fill: rgb(111,28,56); fill-rule: evenodd; opacity: 1;" vector-effect="non-scaling-stroke" transform=" translate(-133.9995, -2009)" d="M 134 2009 c -2.217 0 -4.019 -1.794 -4.019 -4 s 1.802 -4 4.019 -4 s 4.019 1.794 4.019 4 s -1.802 4 -4.019 4 m 3.776 0.673 a 5.978 5.978 0 0 0 2.182 -5.603 c -0.397 -2.623 -2.589 -4.722 -5.236 -5.028 c -3.652 -0.423 -6.75 2.407 -6.75 5.958 c 0 1.89 0.88 3.574 2.252 4.673 c -3.372 1.261 -5.834 4.222 -6.22 8.218 a 1.012 1.012 0 0 0 1.004 1.109 a 0.99 0.99 0 0 0 0.993 -0.891 c 0.403 -4.463 3.836 -7.109 7.999 -7.109 s 7.596 2.646 7.999 7.109 a 0.99 0.99 0 0 0 0.993 0.891 c 0.596 0 1.06 -0.518 1.003 -1.109 c -0.385 -3.996 -2.847 -6.957 -6.22 -8.218" stroke-linecap="round"/>
</g>
</svg>