<svg xmlns="http://www.w3.org/2000/svg" xmlns:xlink="http://www.w3.org/1999/xlink" version="1.1" width="1000" height="1000" viewBox="0 0 1000 1000" xml:space="preserve">
<desc>Created with Fabric.js 3.5.0</desc>
<defs>
</defs>
<rect x="0" y="0" width="100%" height="100%" fill="#ffffff"/>
<g transform="matrix(3.05 0 0 3.05 500 500)" id="642422">
<g style="" vector-effect="non-scaling-stroke">
		<g transform="matrix(1 0 0 1 0 0)" id="profile">
<path style="stroke: none; stroke-width: 1; stroke-dasharray: none; stroke-linecap: butt; stroke-dashoffset: 0; stroke-linejoin: miter; stroke-miterlimit: 4; is-custom-font: none; font-file-url: none; fill: rgb(111,28,56); fill-rule: nonzero; opacity: 1;" transform=" translate(-50, -50)" d="M 44 50 c 0 1.1 -0.9 2 -2 2 H 24 c -1.1 0 -2 -0.9 -2 -2 s 0.9 -2 2 -2 h 18 c 1.1 0 2 0.9 2 2 z m -6 12 H 24 c -1.1 0 -2 0.9 -2 2 s 0.9 2 2 2 h 14 c 1.1 0 2 -0.9 2 -2 s -0.9 -2 -2 -2 z m 4 -28 H 24 c -1.1 0 -2 0.9 -2 2 s 0.9 2 2 2 h 18 c 1.1 0 2 -0.9 2 -2 s -0.9 -2 -2 -2 z m 46 -8 v 48 c 0 1.1 -0.9 2 -2 2 H 14 c -1.1 0 -2 -0.9 -2 -2 V 26 c 0 -1.1 0.9 -2 2 -2 h 72 c 1.1 0 2 0.9 2 2 z m -4 2 H 16 v 44 h 68 V 28 z m -6.1 36 c 0 1.1 -0.9 2 -2 2 H 48 c -1.1 0 -2 -0.9 -2 -2 c 0 -6.6 3.9 -12.2 9.6 -14.7 c -1.9 -1.9 -3.2 -4.5 -3.2 -7.3 c 0 -5.3 4.4 -10 9.5 -10 s 9.5 4.7 9.5 10 c 0 2.8 -1.2 5.4 -3.2 7.3 c 5.7 2.5 9.7 8.1 9.7 14.7 z M 56.4 42 c 0 2.8 2.4 6 5.5 6 s 5.5 -3.2 5.5 -6 s -2.4 -6 -5.5 -6 s -5.5 3.2 -5.5 6 z m 17.4 20 c -0.9 -5.7 -5.9 -10 -11.8 -10 s -10.8 4.3 -11.8 10 h 23.6 z" stroke-linecap="round"/>
</g>
		<g transform="matrix(1 0 0 1 422 2)" id="profile">
<path style="stroke: none; stroke-width: 1; stroke-dasharray: none; stroke-linecap: butt; stroke-dashoffset: 0; stroke-linejoin: miter; stroke-miterlimit: 4; is-custom-font: none; font-file-url: none; fill: rgb(0,0,255); fill-rule: nonzero; opacity: 1;" transform=" translate(-472, -52)" d="M 1364 -790 V 894 H -420 V -790 h 1784 m 8 -8 H -428 V 902 h 1800 V -798 z" stroke-linecap="round"/>
</g>
</g>
</g>
</svg>